<?xml version="1.0" standalone="yes"?>
<svg xmlns="http://www.w3.org/2000/svg" width="225" height="225">
<path style="fill:#4788c7; stroke:none;" d="M112 6L111.5 7.5L111.167 8.05556L110.75 9.05556L110.25 10L109.389 12L108.611 14L107.75 16L106.778 18L106.222 19L105.778 20L105.222 21L104.778 22L103.778 24L103.222 25L102.25 27L101.833 28L101.389 29L100.611 31L100.167 32L99.75 33L98.7778 35L98.2222 36L97.7778 37L97.2222 38L96.7778 39L95.7778 41L95.2222 42L94.25 44L93.8333 45L93.3889 46L92.6111 48L92.1667 49L91.75 50L90.7778 52L90.2222 53L89.2222 55L88.7778 56L88.2222 57L87.7778 58L87.2222 59L86.25 61L85.8333 62L85.3889 63L84.6111 65L83.75 67L83.2222 68L82.7778 69L82.2222 70L81.2222 72L80.7778 73L80.2222 74L79.7778 75L79.2222 76L78.25 78L77.8333 79L77.3889 80L76.6111 82L75.75 84L75.2222 85L74.7778 86L74.2222 87L73.2222 89L72.7778 90L72.2222 91L71.7778 92L71.2222 93L70.25 95L69.8333 96L69.3889 97L68.6667 98.9444L68.4444 99.5L68 101L69.5 100.556L70.0556 100.333L72 99.6111L74 98.8056L75 98.3889L77 97.6667L78 97.3333L80 96.6111L81 96.1944L83 95.3889L85 94.6667L86 94.3333L87 93.9722L88 93.6111L90 92.8056L91 92.3889L93 91.6667L94 91.3333L96 90.6111L98 89.8056L99 89.3889L101 88.6667L102 88.3333L104 87.6111L106 86.8056L107 86.3889L108 86.0278L109.972 85.3611L111.778 84.9167L112.611 84.8333L114.222 85.0833L115.083 85.3611L117 86.0278L118 86.3889L119 86.8056L121 87.6111L123 88.3333L124 88.6667L126 89.3889L127 89.8056L129 90.6111L131 91.3333L132 91.6667L134 92.3889L135 92.8056L137 93.6111L139 94.3333L140 94.6667L141 95.0278L142 95.3889L144 96.1944L145 96.6111L147 97.3333L148 97.6667L150 98.3889L151 98.8056L153 99.6111L154.944 100.333L155.5 100.556L157 101L156.556 99.5L156.333 98.9444L155.611 97L155.167 96L154.75 95L153.778 93L153.222 92L152.778 91L152.222 90L151.778 89L150.778 87L150.222 86L149.778 85L149.25 84L148.389 82L147.611 80L147.167 79L146.75 78L145.778 76L145.222 75L144.778 74L144.222 73L143.778 72L142.778 70L142.222 69L141.778 68L141.25 67L140.389 65L139.611 63L139.167 62L138.75 61L137.778 59L137.222 58L136.778 57L136.222 56L135.778 55L134.778 53L134.222 52L133.25 50L132.833 49L132.389 48L131.611 46L131.167 45L130.75 44L129.778 42L129.222 41L128.778 40L128.222 39L127.778 38L126.778 36L126.222 35L125.778 34L125.25 33L124.389 31L123.611 29L123.167 28L122.75 27L121.778 25L121.222 24L120.778 23L120.222 22L119.778 21L118.778 19L118.222 18L117.25 16L116.833 15L116.389 14L115.611 12L114.75 10L113.806 8.11111L113.222 7.30556L113 6.77777L112 6z"/>
<path style="fill:#87aed8; stroke:none;" d="M108 14L109 15L108 14M116 14L117 15L116 14z"/>
<path style="fill:#94b6dc; stroke:none;" d="M107 16L108 17L107 16M117 16L118 17L117 16z"/>
<path style="fill:#a1bfe0; stroke:none;" d="M106 18L107 19L106 18M118 18L119 19L118 18z"/>
<path style="fill:#98ccfd; stroke:none;" d="M112 19L111.5 20.5L111.167 21.0556L110.75 22.0556L110.222 23L109.778 24L108.778 26L108.222 27L107.25 29L106.833 30L106.389 31L105.611 33L105.167 34L104.75 35L103.778 37L103.222 38L102.778 39L101.778 41L101.222 42L100.778 43L100.25 44L99.3889 46L99 47L98.1111 49L97.0556 51L96.0556 53L95.1667 55L94.75 56L93.7778 58L93.2222 59L92.7778 60L92.2222 61L91.25 63L90.8333 64L90.3889 65L89.6111 67L89.1667 68L88.75 69L87.7778 71L87.2222 72L86.7778 73L86.2222 74L85.7778 75L84.7778 77L84.2222 78L83.25 80L82.8333 81L82.3889 82L81.6111 84L80.75 86L80.25 87L79.8611 87.9444L79.2778 89.5L79 91L80.5 90.7222L81.0556 90.5278L83 89.8056L84 89.3889L86 88.6111L88 87.8056L89 87.3889L91 86.6667L92 86.3333L94 85.6111L95 85.1944L97 84.3889L99 83.6667L100 83.3333L101 82.9722L102 82.6111L103 82.1944L105 81.3889L106 81.0278L108 80.3333L110 79.6944L112 79.3056L114 79.4444L115 79.6944L117 80.3889L118 80.8056L120 81.6111L122 82.3333L123 82.6667L125 83.3889L127 84.1944L128 84.6111L130 85.3333L131 85.6667L133 86.3889L134 86.8056L136 87.6111L137 87.9722L138 88.3333L139 88.6667L141 89.3333L142.944 90L143.944 90.3333L144.5 90.5556L146 91L145.722 89.5L145.139 87.9444L144.75 87L144.222 86L143.778 85L143.25 84L142.833 83L142.389 82L141.611 80L141.167 79L140.75 78L140.222 77L139.222 75L138.778 74L138.222 73L137.778 72L137.222 71L136.25 69L135.833 68L135.389 67L134.611 65L134.167 64L133.75 63L132.778 61L132.222 60L131.778 59L131.222 58L130.25 56L129.833 55L128.944 53L127.944 51L126.889 49L126.417 48L125.611 46L125.167 45L124.75 44L124.222 43L123.222 41L122.778 40L122.222 39L121.778 38L120.778 36L120.25 35L119.389 33L118.611 31L118.167 30L117.75 29L117.222 28L116.222 26L115.222 24L114.778 23L114.222 22.0278L113.806 21.1111L113.222 20.3056L113 19.7778L112 19z"/>
<path style="fill:#afc8e4; stroke:none;" d="M105 20L106 21L105 20M119 20L120 21L119 20z"/>
<path style="fill:#bbd0e8; stroke:none;" d="M104 22L105 23L104 22M120 22L121 23L120 22z"/>
<path style="fill:#afc8e4; stroke:none;" d="M89.6667 25.3333L89.6667 25.6667L90.3333 25.6667L90 25.3333L89.6667 25.3333z"/>
<path style="fill:#c1d4ea; stroke:none;" d="M134 25L134 27L135 27L136 25L134 25z"/>
<path style="fill:#a1bfe0; stroke:none;" d="M86 26L87 27L86 26z"/>
<path style="fill:#4788c7; stroke:none;" d="M23 107L22 108L17 108L15 108L13 107.917L12.0556 107.778L11.0556 107.583L9 107L7.61111 108.5L6.66667 110.056L6.13889 112L6.13889 113L6.66667 114.944L7.27778 115.944L9 118L11.0556 117.417L12.0556 117.222L13 117.083L15 117L17 117L23 117L23 119.056L23.0278 121L23.0833 122L23.3889 124L23.6111 125L23.9444 127L24.0556 128L24.3889 130L24.8056 132L25.1944 134L25.4167 135L26 137L26.6111 139L27.1667 141L27.4444 142L27.8333 143L28.6111 145L29.3889 147L29.8333 148L30.25 149L30.7778 150L31.7778 152L32.2222 153L32.7778 154L33.2222 155L33.7778 156L34.25 157L35.3889 159L36.0278 160L36.6667 161L38 163L39.3333 165L40 166L41.4167 168L42.2222 169L43.0833 170L44.9167 172L46.6111 173.972L47.3889 174.917L48.2222 175.778L50.0278 177.389L52 179.083L53 180.028L55 181.917L57 183.583L58 184.306L59 185L61 186.333L63 187.667L64 188.333L65 188.972L66 189.611L68 190.75L69 191.222L70 191.778L71 192.222L72 192.778L73 193.222L74 193.778L75 194.222L76 194.75L78 195.611L79 195.972L80 196.333L81 196.667L84 197.667L86 198.333L87 198.667L88 199L90 199.583L91 199.806L93 200.194L95 200.611L97 200.944L98 201.056L100 201.389L101 201.611L103 201.917L104 201.972L105.944 202L108 202L108 207L108 209L107.972 210L107.917 211L107.611 212.944L107.25 214.5L107 216L109.056 217.722L110.056 218.333L112 218.861L113 218.861L114.944 218.333L116.5 217.389L118 216L117.75 214.5L117.389 212.944L117.083 211L117.028 210L117 209L117 207L117 202L119.056 202L121 201.972L122 201.917L124 201.611L125 201.389L127 201.056L128 200.944L130 200.611L132 200.194L134 199.806L135 199.583L137 199L138 198.667L139 198.333L141 197.667L144 196.667L145 196.333L146 195.972L147 195.611L149 194.75L150 194.222L151 193.778L152 193.222L153 192.778L154 192.222L155 191.778L156 191.222L157 190.75L159 189.611L160 188.972L162 187.667L163 187L165 185.611L166 184.861L168 183.361L169 182.611L171 180.944L172 180.056L173.917 178.389L174.778 177.611L176.389 175.917L177.222 174.972L178.083 174L180 172L180.972 171L181.917 170L183.583 168L185 166L185.667 165L187 163L188.333 161L188.972 160L189.611 159L190.167 158L190.75 157L191.222 156L192.222 154L192.778 153L193.222 152L193.778 151L194.222 150L194.75 149L195.611 147L195.972 146L196.333 145L197 143L197.667 141L198 140L198.611 138L199.139 136L199.361 135L199.639 134L199.861 133L200.139 132L200.611 130L200.944 128L201.056 127L201.222 126L201.389 125L201.611 124L201.917 122L201.972 121L202 119.056L202 117L207 117L209 117L210 117.028L211 117.083L212.944 117.389L214.5 117.75L216 118L217.722 115.944L218.333 114.944L218.861 113L218.861 112L218.333 110.056L217.389 108.5L216 107L213.944 107.583L212.944 107.778L212 107.917L210 108L208 108L202 108L202 105.944L201.972 104L201.917 103L201.611 101L201.389 100L201.056 98L200.944 97L200.611 95L200.194 93L199.806 91L199.611 90L199.139 88L198.833 87L198.556 86L198.167 85L197.806 84L197.028 82L196.333 80L195.972 79L195.611 78L194.75 76L194.222 75L193.778 74L193.222 73L192.778 72L192.222 71L191.778 70L191.222 69L190.75 68L189.611 66L188.972 65L187.667 63L187 62L185.611 60L184.861 59L184.139 58L183.361 57L182.611 56L180.917 54L179 52L178 51L176 49L174 47L173 46L171 44.0833L169 42.3889L168 41.6389L166 40.1389L165 39.3889L164 38.6944L162 37.3333L160 36.0278L159 35.3889L158 34.8333L157 34.25L156 33.7778L154 32.7778L153 32.2222L152 31.7778L151 31.2222L150 30.7778L149 30.25L147 29.3889L146 29.0278L145 28.6667L144 28.3333L142 27.6667L140 27L139 26.6944L138.056 26.4167L137.056 26.2222L136.5 26.0833L135 26L135.278 27.5L135.861 29.0556L136.25 30L136.778 31L137.222 32L137.778 33L138.222 34L139.222 36L139.778 37L140.222 38L140.75 39L141.611 41L142.389 43L142.833 44L143.25 45L143.778 46L144.778 48L145.222 49L145.778 50L146.222 51L146.778 52L147.222 53L147.778 54L148.222 55L148.75 56L149.611 58L150.389 60L151.25 62L152.25 64L152.861 65L153.472 66L154.25 67L155.083 68L157 70L157.972 71L158.917 72L160.611 74L161.361 75L162.139 76L162.861 77L163.611 78L164.972 80L165.611 81L166.75 83L167.222 84L167.778 85L168.222 86L168.778 87L169.222 88L169.75 89L170.611 91L170.972 92L171.611 94L172.139 96L172.361 97L172.639 98L172.861 99L173.361 101L173.611 102L173.917 104L174.083 106L174.389 108L174.611 109L174.917 111L174.944 112L174.917 113L174.611 115L174.389 116L174.083 118L174.028 119L173.972 121L173.778 123L173.361 125L172.861 127L172.611 128L172 130L171.333 132L170.972 133L170.611 134L169.75 136L169.222 137L168.778 138L168.222 139L167.222 141L166.75 142L165.611 144L164.972 145L163.667 147L162.306 149L161.583 150L159.917 152L158 154L156 156L154 158L152 159.917L150 161.583L149 162.306L147 163.667L145 164.972L144 165.611L143 166.167L142 166.75L141 167.222L139 168.222L138 168.75L137 169.167L136 169.611L134 170.389L132 171.167L131 171.556L130 171.833L128 172.389L127 172.694L126 173L124 173.583L123 173.778L121 173.972L120 174.028L119 174.083L117 174.389L116 174.611L114 174.917L113 174.972L111 174.917L109 174.611L107 174.222L106 174.083L104 173.917L103 173.778L101 173.361L100 173.139L99 172.861L98 172.639L97 172.361L96 172.139L94 171.611L92 170.972L91 170.611L89 169.75L88 169.222L87 168.778L86 168.222L85 167.778L84 167.222L83 166.75L81 165.611L80 164.972L78 163.611L77 162.861L76 162.139L74 160.611L72 158.917L71 157.972L69 156L68 155L67 154L65.0833 152L63.4167 150L62.6944 149L61.3333 147L60.0278 145L59.3889 144L58.25 142L57.7778 141L56.7778 139L55.7778 137L55.25 136L54.3889 134L53.6667 132L53 130L52.3889 128L52.1389 127L51.6389 125L51.3889 124L51.0833 122L51 120L50.9167 118L50.6111 116L50.3889 115L50.0833 113L50.0278 112L50.0833 110L50.3889 108L50.6111 107L50.9444 105L51.0556 104L51.3889 102L51.8611 100L52.1389 99L52.3611 98L52.6389 97L52.8611 96L53.3889 94L54.0278 92L54.3889 91L55.25 89L55.7778 88L56.2222 87L56.7778 86L57.7778 84L58.25 83L59.3889 81L60.6944 79L61.3889 78L62.1389 77L63.6389 75L64.3889 74L66.0833 72L67.0278 71L68 70L69.9167 68L70.75 67L71.5278 66L72.7222 64L73.6111 62L74.3889 60L75.25 58L75.7778 57L76.2222 56L76.7778 55L77.2222 54L78.2222 52L78.7778 51L79.2222 50L79.7778 49L80.2222 48L81.2222 46L81.75 45L82.1667 44L82.6111 43L83.3889 41L84.25 39L84.7778 38L85.2222 37L85.7778 36L86.7778 34L87.2222 33L87.7778 32L88.2222 31L88.75 30L89.1389 29.0556L89.7222 27.5L90 26L88.5 26.0833L87.9444 26.2222L86.9444 26.4167L86 26.6944L85 27L83 27.6667L81 28.3333L80 28.6667L79 29.0278L78 29.3889L76 30.25L75 30.7778L74 31.2222L73 31.7778L72 32.2222L71 32.7778L69 33.7778L68 34.25L67 34.8333L66 35.3889L65 36.0278L63 37.3333L61 38.6944L60 39.3889L59 40.1389L57 41.6389L56 42.3889L54 44.0833L52 46L51 47L49 49L47 51L46 52L44.0833 54L42.3889 56L41.6389 57L40.8611 58L40.1389 59L39.3889 60L38 62L37.3333 63L36.0278 65L35.3889 66L34.25 68L33.7778 69L33.2222 70L32.7778 71L32.2222 72L31.7778 73L30.7778 75L30.25 76L29.8333 77L29.3889 78L28.6111 80L27.8333 82L27.4444 83L26.8611 85L26.6389 86L26.1389 88L25.8611 89L25.6389 90L25.3611 91L25.1389 92L24.8611 93L24.3889 95L24.1944 96L23.8056 98L23.6111 99L23.3889 100L23.0833 102L23.0278 103L23 104.944L23 107z"/>
<path style="fill:#a1bfe0; stroke:none;" d="M138 26L139 27L138 26M83 27L84 28L83 27z"/>
<path style="fill:#96bbe1; stroke:none;" d="M141 27L142 28L141 27z"/>
<path style="fill:#afc8e4; stroke:none;" d="M80 28L81 29L80 28M144 28L145 29L144 28z"/>
<path style="fill:#bbd0e8; stroke:none;" d="M75 30L76 31L75 30M149 30L150 31L149 30z"/>
<path style="fill:#afc8e4; stroke:none;" d="M73 31L74 32L73 31z"/>
<path style="fill:#87aed8; stroke:none;" d="M100 31L101 32L100 31M124 31L125 32L124 31z"/>
<path style="fill:#afc8e4; stroke:none;" d="M151 31L152 32L151 31M71 32L72 33L71 32z"/>
<path style="fill:#c1d4ea; stroke:none;" d="M87 32L88 33L87 32M137 32L138 33L137 32z"/>
<path style="fill:#a1bfe0; stroke:none;" d="M153 32L154 33L153 32z"/>
<path style="fill:#b4cbe6; stroke:none;" d="M69 33L70 34L69 33z"/>
<path style="fill:#94b6dc; stroke:none;" d="M99 33L100 34L99 33M125 33L126 34L125 33z"/>
<path style="fill:#afc8e4; stroke:none;" d="M155 33L156 34L155 33z"/>
<path style="fill:#b4cbe6; stroke:none;" d="M86 34L87 35L86 34M138 34L139 35L138 34z"/>
<path style="fill:#dff0fe; stroke:none;" d="M29 107L45 107L45.0833 105.5L45.2222 104.944L45.6111 103L45.8056 102L46.1944 100L46.3889 99L46.6111 98L47 96L47.2222 95L47.4722 94L47.8333 93L48.6111 91L49.3889 89L49.8056 88L50.6111 86L51 85L51.8889 83L53 81L53.6111 80L54.8056 78L55.3889 77L56.6944 75L58.1389 73L59.6389 71L60.3889 70L62.0833 68L63.0278 67L64.9167 65L65.75 64L66.5278 63L67.75 61L68.2222 60L69.2222 58L69.7778 57L70.2222 56L70.7778 55L71.2222 54L71.7778 53L72.2222 52L73.2222 50L73.75 49L74.1667 48L74.6111 47L75.3889 45L75.8333 44L76.25 43L76.7778 42L77.7778 40L78.2222 39L78.75 38.0556L79.1667 37.0556L79.5 36.5L80 35L78.5 35.2778L76.9444 35.8611L76 36.25L75 36.7778L73 37.7778L72 38.25L70 39.3889L69 40.0278L67 41.3333L66 42L64 43.3333L63 44L61 45.4167L59 47.0556L58 47.9444L56 49.6111L55 50.3889L53 52.0833L52.0278 53.0278L51.0833 54L49.3889 56L48.6111 57L47 59L45.4167 61L44.6944 62L44 63L42.6667 65L41.3333 67L40.6667 68L39.3889 70L38.8333 71L38.25 72L37.7778 73L36.7778 75L36.25 76L35.3889 78L34.6111 80L33.75 82L33.25 83L32.4722 85L32.2222 86L32 87L31.5278 89L31.1667 90L30.4722 92L30.25 93L30.0833 94L29.9167 96L29.7778 97L29.6111 98L29.3889 99L29.0833 101L29 103L29 103.944L29 104.944L29 107z"/>
<path style="fill:#a1bfe0; stroke:none;" d="M98 35L99 36L98 35M126 35L127 36L126 35z"/>
<path style="fill:#b7d3ee; stroke:none;" d="M145.667 35.3333L146 35.6667L146.333 35.6667L146 35.3333L145.667 35.3333z"/>
<path style="fill:#afc8e4; stroke:none;" d="M64 36L65 37L64 36z"/>
<path style="fill:#a1bfe0; stroke:none;" d="M85 36L86 37L85 36z"/>
<path style="fill:#a7c7e8; stroke:none;" d="M139 36L140 37L139 36z"/>
<path style="fill:#dff0fe; stroke:none;" d="M146 36L146.278 37.5L146.861 39.0556L147.25 40L147.778 41L148.222 42L148.75 43L149.167 44L149.611 45L150.389 47L150.833 48L151.25 49L151.778 50L152.778 52L153.222 53L153.778 54L154.222 55L154.778 56L155.222 57L155.778 58L156.778 60L157.25 61L158.472 63L160.083 65L161.917 67L163.611 69L165.194 71L166.806 73L167.583 74L168.306 75L169.611 77L170.167 78L170.75 79L171.25 80L171.833 81L172.361 82L172.944 83L173.944 85L174.361 86L175.194 88L175.611 89L176.333 91L177 93L177.306 94L177.611 95L178.139 97L178.361 98L178.639 99L178.861 100L179.139 101L179.611 103L179.778 103.944L179.972 105.5L180 107L196 107L196 103.944L196 103L195.972 101L195.917 100L195.611 98L195.361 97L195.139 96L194.861 95L194.639 94L194.139 92L193.861 91L193.389 89L193.194 88L192.778 86L192.528 85L191.75 83L191.25 82L190.389 80L189.611 78L188.75 76L188.222 75L187.222 73L186.75 72L186.167 71L185.611 70L184.333 68L183.667 67L182.333 65L181 63L180.306 62L179.583 61L178 59L176.389 57L175.611 56L173.917 54L172 52.0833L170 50.3889L169 49.6111L167 47.9444L166 47.0556L164 45.4167L162 44L161 43.3333L159 42L158 41.3333L156 40.0278L155 39.3889L153 38.25L152 37.7778L151 37.25L149.056 36.4722L147.5 36.0833L146 36z"/>
<path style="fill:#a1bfe0; stroke:none;" d="M160 36L161 37L160 36z"/>
<path style="fill:#afc8e4; stroke:none;" d="M97 37L98 38L97 37M127 37L128 38L127 37z"/>
<path style="fill:#a1bfe0; stroke:none;" d="M61 38L62 39L61 38z"/>
<path style="fill:#87aed8; stroke:none;" d="M78 38L79 39L78 38z"/>
<path style="fill:#96bbe1; stroke:none;" d="M84 38L85 39L84 38M140 38L141 39L140 38z"/>
<path style="fill:#87aed8; stroke:none;" d="M146 38L147 39L146 38z"/>
<path style="fill:#a1bfe0; stroke:none;" d="M163 38L164 39L163 38z"/>
<path style="fill:#bbd0e8; stroke:none;" d="M96 39L97 40L96 39M128 39L129 40L128 39z"/>
<path style="fill:#c1d4ea; stroke:none;" d="M58 40L59 41L58 40z"/>
<path style="fill:#96bbe1; stroke:none;" d="M68 40L69 41L68 40z"/>
<path style="fill:#8db5de; stroke:none;" d="M77 40L78 41L77 40M83 40L84 41L83 40M141 40L142 41L141 40M147 40L148 41L147 40z"/>
<path style="fill:#96bbe1; stroke:none;" d="M156 40L157 41L156 40z"/>
<path style="fill:#94b6dc; stroke:none;" d="M57 41L58 42L57 41M167 41L168 42L167 41z"/>
<path style="fill:#a7c7e8; stroke:none;" d="M65 42L66 43L65 42z"/>
<path style="fill:#96bbe1; stroke:none;" d="M76 42L77 43L76 42M148 42L149 43L148 42z"/>
<path style="fill:#a1bfe0; stroke:none;" d="M159 42L160 43L159 42z"/>
<path style="fill:#8db5de; stroke:none;" d="M62 44L63 45L62 44z"/>
<path style="fill:#a7c7e8; stroke:none;" d="M75 44L76 45L75 44M149 44L150 45L149 44z"/>
<path style="fill:#8db5de; stroke:none;" d="M162 44L163 45L162 44z"/>
<path style="fill:#b4cbe6; stroke:none;" d="M52 45L53 46L52 45M172 45L173 46L172 45z"/>
<path style="fill:#a1bfe0; stroke:none;" d="M51 46L52 47L51 46z"/>
<path style="fill:#afc8e4; stroke:none;" d="M173 46L174 47L173 46z"/>
<path style="fill:#94b6dc; stroke:none;" d="M50 47L51 48L50 47z"/>
<path style="fill:#96bbe1; stroke:none;" d="M174 47L175 48L174 47z"/>
<path style="fill:#87aed8; stroke:none;" d="M49 48L47 50L47 51L48.3611 50.25L49.0833 49.1944L49.3611 48.75L49 48z"/>
<path style="fill:#96bbe1; stroke:none;" d="M57 48L58 49L57 48z"/>
<path style="fill:#87aed8; stroke:none;" d="M92 48L93 49L92 48M132 48L133 49L132 48z"/>
<path style="fill:#96bbe1; stroke:none;" d="M167 48L168 49L167 48z"/>
<path style="fill:#8db5de; stroke:none;" d="M175 48L176 49L175 48z"/>
<path style="fill:#a7c7e8; stroke:none;" d="M56 49L57 50L56 49z"/>
<path style="fill:#c1d4ea; stroke:none;" d="M79 49L80 50L79 49M145 49L146 50L145 49z"/>
<path style="fill:#a7c7e8; stroke:none;" d="M168 49L169 50L168 49z"/>
<path style="fill:#94b6dc; stroke:none;" d="M176 49L176 50L178 51L178 50L176 49M91 50L92 51L91 50M133 50L134 51L133 50M46 51L47 52L46 51z"/>
<path style="fill:#b4cbe6; stroke:none;" d="M78 51L79 52L78 51M146 51L147 52L146 51z"/>
<path style="fill:#a1bfe0; stroke:none;" d="M178 51L179 52L178 51M45 52L46 53L45 52M90 52L91 53L90 52M134 52L135 53L134 52z"/>
<path style="fill:#b4cbe6; stroke:none;" d="M179 52L180 53L179 52z"/>
<path style="fill:#c1d4ea; stroke:none;" d="M44 53L45 54L44 53z"/>
<path style="fill:#a1bfe0; stroke:none;" d="M77 53L78 54L77 53z"/>
<path style="fill:#a7c7e8; stroke:none;" d="M147 53L148 54L147 53z"/>
<path style="fill:#afc8e4; stroke:none;" d="M89 54L90 55L89 54M135 54L136 55L135 54z"/>
<path style="fill:#87aed8; stroke:none;" d="M70 55L71 56L70 55z"/>
<path style="fill:#a1bfe0; stroke:none;" d="M76 55L77 56L76 55M148 55L149 56L148 55z"/>
<path style="fill:#87aed8; stroke:none;" d="M154 55L155 56L154 55z"/>
<path style="fill:#bbd0e8; stroke:none;" d="M88 56L89 57L88 56M136 56L137 57L136 56z"/>
<path style="fill:#7da7d5; stroke:none;" d="M41 57L42 58L41 57z"/>
<path style="fill:#96bbe1; stroke:none;" d="M48 57L49 58L48 57M69 57L70 58L69 57z"/>
<path style="fill:#8db5de; stroke:none;" d="M75 57L76 58L75 57M149 57L150 58L149 57M155 57L156 58L155 57z"/>
<path style="fill:#96bbe1; stroke:none;" d="M176 57L177 58L176 57z"/>
<path style="fill:#8db5de; stroke:none;" d="M183 57L184 58L183 57z"/>
<path style="fill:#b4cbe6; stroke:none;" d="M40 58L41 59L40 58z"/>
<path style="fill:#c1d4ea; stroke:none;" d="M184 58L185 59L184 58z"/>
<path style="fill:#a1bfe0; stroke:none;" d="M68 59L69 60L68 59z"/>
<path style="fill:#87aed8; stroke:none;" d="M74 59L75 60L74 59z"/>
<path style="fill:#96bbe1; stroke:none;" d="M156 59L157 60L156 59z"/>
<path style="fill:#94b6dc; stroke:none;" d="M38 61L39 62L38 61z"/>
<path style="fill:#a7c7e8; stroke:none;" d="M67 61L68 62L67 61M157 61L158 62L157 61z"/>
<path style="fill:#a1bfe0; stroke:none;" d="M186 61L187 62L186 61z"/>
<path style="fill:#96bbe1; stroke:none;" d="M44 62L45 63L44 62z"/>
<path style="fill:#8db5de; stroke:none;" d="M180 62L181 63L180 62z"/>
<path style="fill:#94b6dc; stroke:none;" d="M36 64L37 65L36 64z"/>
<path style="fill:#a1bfe0; stroke:none;" d="M188 64L189 65L188 64z"/>
<path style="fill:#a7c7e8; stroke:none;" d="M42 65L43 66L42 65z"/>
<path style="fill:#87aed8; stroke:none;" d="M84 65L85 66L84 65M140 65L141 66L140 65z"/>
<path style="fill:#a7c7e8; stroke:none;" d="M182 65L183 66L182 65z"/>
<path style="fill:#bbd0e8; stroke:none;" d="M34 67L35 68L34 67z"/>
<path style="fill:#94b6dc; stroke:none;" d="M83 67L84 68L83 67M141 67L142 68L141 67z"/>
<path style="fill:#a7c7e8; stroke:none;" d="M40 68L41 69L40 68z"/>
<path style="fill:#8db5de; stroke:none;" d="M61 68L62 69L61 68z"/>
<path style="fill:#96bbe1; stroke:none;" d="M163 68L164 69L163 68M184 68L185 69L184 68z"/>
<path style="fill:#a1bfe0; stroke:none;" d="M33 69L34 70L33 69z"/>
<path style="fill:#a7c7e8; stroke:none;" d="M60 69L61 70L60 69z"/>
<path style="fill:#a1bfe0; stroke:none;" d="M82 69L83 70L82 69M142 69L143 70L142 69z"/>
<path style="fill:#afc8e4; stroke:none;" d="M191 69L192 70L191 69z"/>
<path style="fill:#94b6dc; stroke:none;" d="M32 71L33 72L32 71z"/>
<path style="fill:#afc8e4; stroke:none;" d="M81 71L82 72L81 71M143 71L144 72L143 71z"/>
<path style="fill:#96bbe1; stroke:none;" d="M192 71L193 72L192 71z"/>
<path style="fill:#c1d4ea; stroke:none;" d="M159 72L160 73L159 72z"/>
<path style="fill:#94b6dc; stroke:none;" d="M31 73L32 74L31 73z"/>
<path style="fill:#96bbe1; stroke:none;" d="M57 73L58 74L57 73z"/>
<path style="fill:#a1bfe0; stroke:none;" d="M64 73L65 74L64 73z"/>
<path style="fill:#bbd0e8; stroke:none;" d="M80 73L81 74L80 73M144 73L145 74L144 73z"/>
<path style="fill:#a1bfe0; stroke:none;" d="M160 73L161 74L160 73z"/>
<path style="fill:#96bbe1; stroke:none;" d="M167 73L168 74L167 73M193 73L194 74L193 73z"/>
<path style="fill:#a1bfe0; stroke:none;" d="M30 75L31 76L30 75z"/>
<path style="fill:#87aed8; stroke:none;" d="M36 75L37 76L36 75z"/>
<path style="fill:#a1bfe0; stroke:none;" d="M194 75L195 76L194 75z"/>
<path style="fill:#96bbe1; stroke:none;" d="M55 76L56 77L55 76M169 76L170 77L169 76z"/>
<path style="fill:#c1d4ea; stroke:none;" d="M29 77L30 78L29 77z"/>
<path style="fill:#afc8e4; stroke:none;" d="M61 77L62 78L61 77z"/>
<path style="fill:#a7c7e8; stroke:none;" d="M163 77L164 78L163 77z"/>
<path style="fill:#c1d4ea; stroke:none;" d="M195 77L196 78L195 77z"/>
<path style="fill:#94b6dc; stroke:none;" d="M28 80L29 81L28 80z"/>
<path style="fill:#a7c7e8; stroke:none;" d="M34 80L35 81L34 80z"/>
<path style="fill:#a1bfe0; stroke:none;" d="M59 80L60 81L59 80z"/>
<path style="fill:#94b6dc; stroke:none;" d="M165 80L166 81L165 80z"/>
<path style="fill:#a7c7e8; stroke:none;" d="M190 80L191 81L190 80z"/>
<path style="fill:#94b6dc; stroke:none;" d="M196 80L197 81L196 80z"/>
<path style="fill:#afc8e4; stroke:none;" d="M52 81L53 82L52 81z"/>
<path style="fill:#8db5de; stroke:none;" d="M33 82L34 83L33 82z"/>
<path style="fill:#c1d4ea; stroke:none;" d="M58 82L59 83L58 82z"/>
<path style="fill:#87aed8; stroke:none;" d="M76 82L77 83L76 82M148 82L149 83L148 82z"/>
<path style="fill:#bbd0e8; stroke:none;" d="M166 82L167 83L166 82z"/>
<path style="fill:#87aed8; stroke:none;" d="M191 82L192 83L191 82z"/>
<path style="fill:#a7c7e8; stroke:none;" d="M51 83L52 84L51 83M173 83L174 84L173 83z"/>
<path style="fill:#87aed8; stroke:none;" d="M197 83L198 84L197 83z"/>
<path style="fill:#94b6dc; stroke:none;" d="M75 84L76 85L75 84z"/>
<path style="fill:#bbd0e8; stroke:none;" d="M112 84L113 85L112 84z"/>
<path style="fill:#94b6dc; stroke:none;" d="M149 84L150 85L149 84z"/>
<path style="fill:#afc8e4; stroke:none;" d="M109 85L110 86L109 85M115 85L116 86L115 85z"/>
<path style="fill:#87aed8; stroke:none;" d="M26 86L27 87L26 86z"/>
<path style="fill:#a1bfe0; stroke:none;" d="M74 86L75 87L74 86z"/>
<path style="fill:#94b6dc; stroke:none;" d="M106 86L107 87L106 86M118 86L119 87L118 86z"/>
<path style="fill:#a1bfe0; stroke:none;" d="M150 86L151 87L150 86z"/>
<path style="fill:#c1d4ea; stroke:none;" d="M168 86L169 87L168 86z"/>
<path style="fill:#bdd7f0; stroke:none;" d="M31.3333 88.6667L31.3333 89.3333L31.6667 89.3333L31.6667 89L31.3333 88.6667z"/>
<path style="fill:#8db5de; stroke:none;" d="M49 88L50 89L49 88z"/>
<path style="fill:#afc8e4; stroke:none;" d="M55 88L56 89L55 88M73 88L74 89L73 88M101 88L102 89L101 88M123 88L124 89L123 88M151 88L152 89L151 88M169 88L170 89L169 88z"/>
<path style="fill:#96bbe1; stroke:none;" d="M175 88L176 89L175 88z"/>
<path style="fill:#b7d3ee; stroke:none;" d="M193.333 88.6667L193.333 89L193.667 89.3333L193.667 88.6667L193.333 88.6667z"/>
<path style="fill:#699cd0; stroke:none;" d="M25.3333 89.6667L25.3333 90L25.6667 90.3333L25.6667 90L25.3333 89.6667z"/>
<path style="fill:#94b6dc; stroke:none;" d="M98 89L99 90L98 89M126 89L127 90L126 89z"/>
<path style="fill:#afc8e4; stroke:none;" d="M199 89L200 90L199 89z"/>
<path style="fill:#87aed8; stroke:none;" d="M54 90L55 91L54 90z"/>
<path style="fill:#bbd0e8; stroke:none;" d="M72 90L73 91L72 90M152 90L153 91L152 90z"/>
<path style="fill:#87aed8; stroke:none;" d="M170 90L171 91L170 90z"/>
<path style="fill:#afc8e4; stroke:none;" d="M93 91L94 92L93 91M131 91L132 92L131 91z"/>
<path style="fill:#8db5de; stroke:none;" d="M176 91L177 92L176 91z"/>
<path style="fill:#94b6dc; stroke:none;" d="M90 92L91 93L90 92M134 92L135 93L134 92z"/>
<path style="fill:#bdd7f0; stroke:none;" d="M194.333 92.6667L194.333 93L194.667 93.3333L194.667 93L194.333 92.6667z"/>
<path style="fill:#7da7d5; stroke:none;" d="M24.3333 93.6667L24.3333 94L24.6667 94.3333L24.6667 94L24.3333 93.6667z"/>
<path style="fill:#96bbe1; stroke:none;" d="M47.3333 93.6667L47.3333 94L47.6667 94.3333L47.6667 94L47.3333 93.6667M53 93L54 94L53 93z"/>
<path style="fill:#c7d8ec; stroke:none;" d="M171.333 93.6667L171.333 94.3333L171.667 94.3333L171.667 94L171.333 93.6667z"/>
<path style="fill:#87aed8; stroke:none;" d="M200.333 93.6667L200.333 94L200.667 94.3333L200.667 94L200.333 93.6667z"/>
<path style="fill:#afc8e4; stroke:none;" d="M85 94L86 95L85 94M139 94L140 95L139 94z"/>
<path style="fill:#699cd0; stroke:none;" d="M177.333 94.6667L177.333 95L177.667 95.3333L177.667 95L177.333 94.6667z"/>
<path style="fill:#94b6dc; stroke:none;" d="M82 95L83 96L82 95M142 95L143 96L142 95z"/>
<path style="fill:#a7c7e8; stroke:none;" d="M29 96L29 99L29.6944 98.25L29.6944 97.1944L29.6944 96.75L29 96z"/>
<path style="fill:#a1bfe0; stroke:none;" d="M195.333 96.6667L195.333 97L195.667 97.3333L195.667 97L195.333 96.6667z"/>
<path style="fill:#bbd0e8; stroke:none;" d="M23 97L23 100L23.6944 99.25L23.6944 98.1944L23.6944 97.75L23 97z"/>
<path style="fill:#afc8e4; stroke:none;" d="M77 97L78 98L77 97M147 97L148 98L147 97z"/>
<path style="fill:#dce7f3; stroke:none;" d="M172.333 97.6667L172.333 98L172.667 98.3333L172.667 97.6667L172.333 97.6667z"/>
<path style="fill:#c7d8ec; stroke:none;" d="M201.333 97.6667L201.333 98L201.667 98.3333L201.667 97.6667L201.333 97.6667z"/>
<path style="fill:#71a0d2; stroke:none;" d="M46.3333 98.6667L46.3333 99.3333L46.6667 99.3333L46.6667 99L46.3333 98.6667z"/>
<path style="fill:#94b6dc; stroke:none;" d="M74 98L75 99L74 98M150 98L151 99L150 98z"/>
<path style="fill:#78a5d4; stroke:none;" d="M178.333 98.6667L178.333 99L178.667 99.3333L178.667 98.6667L178.333 98.6667z"/>
<path style="fill:#87aed8; stroke:none;" d="M68 99L69 100L68 99M156 99L157 100L156 99M201.333 99.6667L201.333 100L201.667 100.333L201.667 99.6667L201.333 99.6667z"/>
<path style="fill:#afc8e4; stroke:none;" d="M69 100L70 101L69 100M155 100L156 101L155 100z"/>
<path style="fill:#7da7d5; stroke:none;" d="M28.3333 101.667L28.3333 102L28.6667 102.333L28.6667 101.667L28.3333 101.667z"/>
<path style="fill:#c1d4ea; stroke:none;" d="M51.3333 101.667L51.3333 102.333L51.6667 102.333L51.6667 101.667L51.3333 101.667z"/>
<path style="fill:#b4cbe6; stroke:none;" d="M173.333 101.667L173.333 102L173.667 102.333L173.667 102L173.333 101.667z"/>
<path style="fill:#b7d3ee; stroke:none;" d="M179.333 102.667L179.333 103L179.667 103.333L179.667 103L179.333 102.667z"/>
<path style="fill:#87aed8; stroke:none;" d="M196 102L196 105L196.694 104.25L196.694 103.194L196.694 102.75L196 102z"/>
<path style="fill:#b7d3ee; stroke:none;" d="M28 103L28 107L28.7222 106.222L28.8889 105L28.7222 104.278L28.7222 103.778L28 103z"/>
<path style="fill:#96bbe1; stroke:none;" d="M45 103L45 106L45.6944 105.25L45.6944 104.194L45.6944 103.75L45 103z"/>
<path style="fill:#8db5de; stroke:none;" d="M179 104L179 107L179.694 106.25L179.694 105.194L179.694 104.75L179 104z"/>
<path style="fill:#a7c7e8; stroke:none;" d="M196.333 105.667L196.333 106L196.667 106.333L196.667 105.667L196.333 105.667z"/>
<path style="fill:#317ec3; stroke:none;" d="M10 107L10.7778 107.722L11.3056 107.75L12.1111 107.944L13.0278 107.972L15 108L17 108L22 108L21.2222 107.278L20.6944 107.25L19.8889 107.056L18.9722 107.028L17 107L15 107L10 107z"/>
<path style="fill:#3780c3; stroke:none;" d="M28 107L28.7778 107.722L29.3056 107.75L30.1111 107.944L31.0278 107.972L32 108L33 108L35 108L45 108L44.2222 107.278L43.6944 107.25L42.8889 107.056L41.9722 107.028L41 107L40 107L38 107L28 107z"/>
<path style="fill:#94b6dc; stroke:none;" d="M50 107L50 116L50.7222 115.222L50.75 114.694L50.9444 113.889L50.9722 112.972L51 111L50.9444 109.111L50.75 108.306L50.7222 107.778L50 107z"/>
<path style="fill:#3780c3; stroke:none;" d="M180 107L180.778 107.722L181.306 107.75L182.111 107.944L183.028 107.972L184 108L185 108L187 108L197 108L196.222 107.278L195.694 107.25L194.889 107.056L193.972 107.028L193 107L192 107L190 107L180 107z"/>
<path style="fill:#317ec3; stroke:none;" d="M202 107L202.778 107.722L203.306 107.75L204.111 107.944L205.028 107.972L206 108L208 108L210 108L215 108L214.222 107.278L213.694 107.25L212.889 107.056L211.972 107.028L211 107L209 107L207 107L202 107z"/>
<path style="fill:#c1d4ea; stroke:none;" d="M216 107L217 108L216 107z"/>
<path style="fill:#7da7d5; stroke:none;" d="M7 108L8 109L7 108z"/>
<path style="fill:#94b6dc; stroke:none;" d="M174 108L174 116L174.722 115.222L174.75 114.694L174.944 113.889L174.972 112.972L175 112L174.944 110.111L174.75 109.306L174.722 108.778L174 108z"/>
<path style="fill:#87aed8; stroke:none;" d="M217 108L218 109L217 108z"/>
<path style="fill:#afc8e4; stroke:none;" d="M6 109L7 110L6 109M218 109L219 110L218 109z"/>
<path style="fill:#c7d8ec; stroke:none;" d="M5 111L5 114L5.69444 113.25L5.69444 112.194L5.69444 111.75L5 111M219 111L219 114L219.694 113.25L219.694 112.194L219.694 111.75L219 111z"/>
<path style="fill:#afc8e4; stroke:none;" d="M6 115L7 116L6 115z"/>
<path style="fill:#b4cbe6; stroke:none;" d="M218 115L219 116L218 115z"/>
<path style="fill:#87aed8; stroke:none;" d="M7 116L8 117L7 116M217 116L218 117L217 116z"/>
<path style="fill:#317ec3; stroke:none;" d="M10 117L10.7778 117.722L11.3056 117.75L12.1111 117.944L13.0278 117.972L14 118L16 118L18 118L23 118L22.2222 117.278L21.6944 117.25L20.8889 117.056L19.9722 117.028L19 117L17 117L15 117L10 117z"/>
<path style="fill:#3780c3; stroke:none;" d="M28 117L28.7778 117.722L29.3056 117.75L30.1111 117.944L31.0278 117.972L32 118L33 118L35 118L45 118L44.2222 117.278L43.6944 117.25L42.8889 117.056L41.9722 117.028L41 117L40 117L38 117L28 117M180 117L180.778 117.722L181.306 117.75L182.111 117.944L183.028 117.972L184 118L185 118L187 118L197 118L196.222 117.278L195.694 117.25L194.889 117.056L193.972 117.028L193 117L192 117L190 117L180 117z"/>
<path style="fill:#317ec3; stroke:none;" d="M202 117L202.778 117.722L203.306 117.75L204.111 117.944L205.028 117.972L207 118L209 118L214 118L213.222 117.278L212.694 117.25L211.889 117.056L210.972 117.028L209 117L207 117L202 117z"/>
<path style="fill:#a7c7e8; stroke:none;" d="M28.3333 118.667L28.3333 119L28.6667 119.333L28.6667 118.667L28.3333 118.667z"/>
<path style="fill:#dff0fe; stroke:none;" d="M29 118L29 120.056L29 121.056L29.0278 123L29.0833 124L29.3889 126L29.6111 127L29.7778 128L29.9444 129L30.0556 130L30.3889 132L30.6389 133L31.1389 135L31.3889 136L31.6944 137L32 138L32.6667 140L33.0278 141L33.3889 142L33.8056 143L34.6111 145L35.3889 147L35.8333 148L36.25 149L36.7778 150L37.7778 152L38.25 153L38.8333 154L39.3889 155L40.0278 156L40.6667 157L42 159L43.3333 161L44 162L45.4167 164L47.0556 166L47.9444 167L49.6111 169L50.3889 170L52.0833 171.972L53.0278 172.917L55 174.611L56 175.389L57 176.222L58 177.056L60 178.778L61 179.583L63 181L64 181.667L66 183L68 184.333L69 184.972L70 185.611L71 186.167L72 186.75L73 187.222L74 187.778L75 188.222L76 188.75L78 189.611L79 189.972L81 190.694L82 191.083L84 191.972L85 192.389L86 192.722L87 192.972L89 193.389L91 193.861L92 194.139L94 194.639L95 194.861L96 195.139L97 195.361L98 195.611L100 195.917L101 195.972L103 196L103.944 196L107 196L107 180L105.5 179.972L103.944 179.778L103 179.611L101 179.139L100 178.861L99 178.639L98 178.361L97 178.139L95 177.611L94 177.306L92 176.667L90 175.972L89 175.611L88 175.194L86 174.389L85 174L83 173.111L81 172L80 171.389L78 170.194L77 169.611L75 168.306L73 166.861L72 166.139L71 165.361L70 164.611L68 162.917L66 161L65 160L63.0278 158L62.0833 157L60.3889 155L59.6389 154L58.8611 153L58.1389 152L56.6944 150L55.3889 148L54.8056 147L53.6111 145L53 144L51.8889 142L51 140L50.6111 139L49.75 137L49.25 136L48.8333 135L48.3889 134L47.6944 132L47.4167 131L47.1944 130L46.8056 128L46.3889 126L46.0556 124L45.9444 123L45.6111 121.056L45.25 119.5L45 118L29 118z"/>
<path style="fill:#87aed8; stroke:none;" d="M45 118L45 121L45.6944 120.25L45.6944 119.194L45.6944 118.75L45 118z"/>
<path style="fill:#8db5de; stroke:none;" d="M179 118L179 121L179.694 120.25L179.694 119.194L179.694 118.75L179 118z"/>
<path style="fill:#dff0fe; stroke:none;" d="M180 118L179.75 119.5L179.611 120.056L179.222 122L178.944 124L178.583 126L178 128L177.417 130L177 132L176.778 133L176.528 134L175.75 136L175.25 137L174.389 139L174 140L173.111 142L172 144L171.389 145L170.194 147L169.611 148L168.306 150L166.861 152L166.139 153L165.361 154L164.611 155L162.917 157L161 159L160 160L158 161.972L157 162.917L155 164.611L154 165.361L153 166.139L152 166.861L150 168.306L148 169.611L147 170.194L145 171.389L144 172L142 173.111L140 174L139 174.389L137 175.25L136 175.75L134 176.528L133 176.778L132 177L130 177.472L129 177.833L127 178.528L126 178.75L125 178.917L123 179.083L121.056 179.389L119.5 179.75L118 180L118 196L120.056 196L121.056 196L123 195.917L124 195.778L125 195.611L127 195.222L128 195.083L130 194.917L132 194.611L133 194.361L135 193.861L136 193.611L138 193L140 192.333L141 191.972L142 191.611L143 191.194L145 190.389L147 189.611L148 189.167L149 188.75L150 188.222L152 187.222L153 186.75L154 186.167L155 185.611L156 184.972L157 184.333L159 183L161 181.667L162 181L164 179.583L166 177.944L167 177.056L169 175.389L170 174.611L171.972 172.917L172.917 171.972L174.611 170L175.389 169L177.056 167L177.944 166L179.583 164L181 162L181.667 161L183 159L184.333 157L184.972 156L185.611 155L186.167 154L186.75 153L187.222 152L188.222 150L188.75 149L189.167 148L189.611 147L190.389 145L191.194 143L191.611 142L191.972 141L192.333 140L193 138L193.306 137L193.611 136L193.861 135L194.361 133L194.611 132L194.944 130L195.056 129L195.222 128L195.389 127L195.611 126L195.917 124L195.972 123L196 121.056L196 120.056L196 118L180 118z"/>
<path style="fill:#a7c7e8; stroke:none;" d="M196.333 118.667L196.333 119L196.667 119.333L196.667 118.667L196.333 118.667z"/>
<path style="fill:#87aed8; stroke:none;" d="M28 120L28 123L28.6944 122.25L28.6944 121.194L28.6944 120.75L28 120z"/>
<path style="fill:#dce7f3; stroke:none;" d="M51 120L51 123L51.6944 122.25L51.6944 121.806L51.6944 120.75L51 120z"/>
<path style="fill:#87aed8; stroke:none;" d="M196 120L196 123L196.694 122.25L196.694 121.194L196.694 120.75L196 120z"/>
<path style="fill:#94b6dc; stroke:none;" d="M173 122L173 125L173.694 124.25L173.694 123.194L173.694 122.75L173 122z"/>
<path style="fill:#78a5d4; stroke:none;" d="M51.3333 123.667L51.3333 124.333L51.6667 124.333L51.6667 124L51.3333 123.667z"/>
<path style="fill:#a1bfe0; stroke:none;" d="M23.3333 124.667L23.3333 125L23.6667 125.333L23.6667 124.667L23.3333 124.667M201.333 124.667L201.333 125L201.667 125.333L201.667 124.667L201.333 124.667z"/>
<path style="fill:#96bbe1; stroke:none;" d="M46.3333 125.667L46.3333 126.333L46.6667 126.333L46.6667 126L46.3333 125.667M178.333 125.667L178.333 126.333L178.667 126.333L178.667 125.667L178.333 125.667z"/>
<path style="fill:#dce7f3; stroke:none;" d="M23.3333 126.667L23.3333 127L23.6667 127.333L23.6667 126.667L23.3333 126.667z"/>
<path style="fill:#a7c7e8; stroke:none;" d="M29 126L29 129L29.6944 128.25L29.6944 127.194L29.6944 126.75L29 126z"/>
<path style="fill:#a1bfe0; stroke:none;" d="M195.333 126.667L195.333 127L195.667 127.333L195.667 127L195.333 126.667z"/>
<path style="fill:#dce7f3; stroke:none;" d="M201.333 126.667L201.333 127L201.667 127.333L201.667 127L201.333 126.667z"/>
<path style="fill:#87aed8; stroke:none;" d="M52.3333 127.667L52.3333 128.333L52.6667 128.333L52.6667 128L52.3333 127.667z"/>
<path style="fill:#7da7d5; stroke:none;" d="M172.333 127.667L172.333 128L172.667 128.333L172.667 127.667L172.333 127.667z"/>
<path style="fill:#b4cbe6; stroke:none;" d="M24.3333 130.667L24.3333 131L24.6667 131.333L24.6667 130.667L24.3333 130.667z"/>
<path style="fill:#bdd7f0; stroke:none;" d="M47.3333 130.667L47.3333 131.333L47.6667 131.333L47.6667 130.667L47.3333 130.667z"/>
<path style="fill:#b4cbe6; stroke:none;" d="M200.333 130.667L200.333 131.333L200.667 131.333L200.667 131L200.333 130.667z"/>
<path style="fill:#a1bfe0; stroke:none;" d="M53 131L54 132L53 131z"/>
<path style="fill:#94b6dc; stroke:none;" d="M171 131L172 132L171 131z"/>
<path style="fill:#699cd0; stroke:none;" d="M30.3333 132.667L30.3333 133L30.6667 133.333L30.6667 132.667L30.3333 132.667z"/>
<path style="fill:#bdd7f0; stroke:none;" d="M48.3333 133.667L48.3333 134.333L48.6667 134.333L48.6667 133.667L48.3333 133.667M176.333 133.667L176.333 134L176.667 134.333L176.667 134L176.333 133.667z"/>
<path style="fill:#94b6dc; stroke:none;" d="M54 134L55 135L54 134z"/>
<path style="fill:#87aed8; stroke:none;" d="M170 134L171 135L170 134z"/>
<path style="fill:#afc8e4; stroke:none;" d="M199.333 134.667L199.333 135L199.667 135.333L199.667 134.667L199.333 134.667z"/>
<path style="fill:#a1bfe0; stroke:none;" d="M25 135L26 136L25 135z"/>
<path style="fill:#8db5de; stroke:none;" d="M31 136L32 137L31 136M49 136L50 137L49 136z"/>
<path style="fill:#c1d4ea; stroke:none;" d="M55 136L56 137L55 136z"/>
<path style="fill:#b4cbe6; stroke:none;" d="M169 136L170 137L169 136z"/>
<path style="fill:#8db5de; stroke:none;" d="M175 136L176 137L175 136z"/>
<path style="fill:#87aed8; stroke:none;" d="M26 138L27 139L26 138z"/>
<path style="fill:#c7d8ec; stroke:none;" d="M198.333 138.667L198.333 139.333L198.667 139.333L198.667 139L198.333 138.667z"/>
<path style="fill:#96bbe1; stroke:none;" d="M32 139L33 140L32 139z"/>
<path style="fill:#8db5de; stroke:none;" d="M192 139L193 140L192 139z"/>
<path style="fill:#a7c7e8; stroke:none;" d="M51 141L52 142L51 141M173 141L174 142L173 141z"/>
<path style="fill:#87aed8; stroke:none;" d="M197 141L198 142L197 141M33 142L34 143L33 142z"/>
<path style="fill:#c1d4ea; stroke:none;" d="M166 142L167 143L166 142z"/>
<path style="fill:#a7c7e8; stroke:none;" d="M52 143L53 144L52 143M172 143L173 144L172 143z"/>
<path style="fill:#94b6dc; stroke:none;" d="M28 144L29 145L28 144z"/>
<path style="fill:#a7c7e8; stroke:none;" d="M34 144L35 145L34 144z"/>
<path style="fill:#a1bfe0; stroke:none;" d="M59 144L60 145L59 144M165 144L166 145L165 144z"/>
<path style="fill:#a7c7e8; stroke:none;" d="M190 144L191 145L190 144z"/>
<path style="fill:#94b6dc; stroke:none;" d="M196 144L197 145L196 144z"/>
<path style="fill:#c1d4ea; stroke:none;" d="M29 147L30 148L29 147z"/>
<path style="fill:#afc8e4; stroke:none;" d="M61 147L62 148L61 147M163 147L164 148L163 147z"/>
<path style="fill:#c1d4ea; stroke:none;" d="M195 147L196 148L195 147z"/>
<path style="fill:#8db5de; stroke:none;" d="M55 148L56 149L55 148z"/>
<path style="fill:#96bbe1; stroke:none;" d="M169 148L170 149L169 148z"/>
<path style="fill:#a1bfe0; stroke:none;" d="M30 149L31 150L30 149M194 149L195 150L194 149z"/>
<path style="fill:#87aed8; stroke:none;" d="M63 150L64 151L63 150M161 150L162 151L161 150z"/>
<path style="fill:#94b6dc; stroke:none;" d="M31 151L32 152L31 151z"/>
<path style="fill:#96bbe1; stroke:none;" d="M57 151L58 152L57 151z"/>
<path style="fill:#b4cbe6; stroke:none;" d="M64 151L65 152L64 151M160 151L161 152L160 151z"/>
<path style="fill:#96bbe1; stroke:none;" d="M167 151L168 152L167 151z"/>
<path style="fill:#94b6dc; stroke:none;" d="M193 151L194 152L193 151M32 153L33 154L32 153M192 153L193 154L192 153z"/>
<path style="fill:#a1bfe0; stroke:none;" d="M33 155L34 156L33 155M60 155L61 156L60 155z"/>
<path style="fill:#a7c7e8; stroke:none;" d="M164 155L165 156L164 155z"/>
<path style="fill:#a1bfe0; stroke:none;" d="M191 155L192 156L191 155z"/>
<path style="fill:#96bbe1; stroke:none;" d="M40 156L41 157L40 156z"/>
<path style="fill:#87aed8; stroke:none;" d="M61 156L62 157L61 156M163 156L164 157L163 156z"/>
<path style="fill:#8db5de; stroke:none;" d="M184 156L185 157L184 156z"/>
<path style="fill:#bbd0e8; stroke:none;" d="M34 157L35 158L34 157z"/>
<path style="fill:#c1d4ea; stroke:none;" d="M190 157L191 158L190 157z"/>
<path style="fill:#a7c7e8; stroke:none;" d="M42 159L43 160L42 159z"/>
<path style="fill:#96bbe1; stroke:none;" d="M182 159L183 160L182 159z"/>
<path style="fill:#94b6dc; stroke:none;" d="M36 160L37 161L36 160z"/>
<path style="fill:#afc8e4; stroke:none;" d="M73 160L74 161L73 160M151 160L152 161L151 160z"/>
<path style="fill:#94b6dc; stroke:none;" d="M188 160L189 161L188 160z"/>
<path style="fill:#87aed8; stroke:none;" d="M150 161L151 162L150 161z"/>
<path style="fill:#8db5de; stroke:none;" d="M44 162L45 163L44 162z"/>
<path style="fill:#87aed8; stroke:none;" d="M180 162L181 163L180 162M38 163L39 164L38 163M68 163L69 164L68 163z"/>
<path style="fill:#b4cbe6; stroke:none;" d="M77 163L78 164L77 163M147 163L148 164L147 163z"/>
<path style="fill:#87aed8; stroke:none;" d="M156 163L157 164L156 163z"/>
<path style="fill:#8db5de; stroke:none;" d="M186 163L187 164L186 163z"/>
<path style="fill:#a1bfe0; stroke:none;" d="M69 164L70 165L69 164z"/>
<path style="fill:#a7c7e8; stroke:none;" d="M155 164L156 165L155 164z"/>
<path style="fill:#a1bfe0; stroke:none;" d="M80 165L81 166L80 165z"/>
<path style="fill:#a7c7e8; stroke:none;" d="M144 165L145 166L144 165z"/>
<path style="fill:#afc8e4; stroke:none;" d="M40 166L41 167L40 166z"/>
<path style="fill:#b4cbe6; stroke:none;" d="M184 166L185 167L184 166z"/>
<path style="fill:#96bbe1; stroke:none;" d="M48 167L49 168L48 167M73 167L74 168L73 167M151 167L152 168L151 167z"/>
<path style="fill:#8db5de; stroke:none;" d="M176 167L177 168L176 167z"/>
<path style="fill:#a7c7e8; stroke:none;" d="M49 168L50 169L49 168z"/>
<path style="fill:#a1bfe0; stroke:none;" d="M175 168L176 169L175 168z"/>
<path style="fill:#96bbe1; stroke:none;" d="M76 169L77 170L76 169z"/>
<path style="fill:#afc8e4; stroke:none;" d="M88 169L89 170L88 169z"/>
<path style="fill:#b4cbe6; stroke:none;" d="M136 169L137 170L136 169z"/>
<path style="fill:#96bbe1; stroke:none;" d="M148 169L149 170L148 169z"/>
<path style="fill:#94b6dc; stroke:none;" d="M90 170L91 171L90 170z"/>
<path style="fill:#bbd0e8; stroke:none;" d="M44 171L45 172L44 171z"/>
<path style="fill:#94b6dc; stroke:none;" d="M93 171L94 172L93 171M131 171L132 172L131 171z"/>
<path style="fill:#c1d4ea; stroke:none;" d="M180 171L181 172L180 171z"/>
<path style="fill:#96bbe1; stroke:none;" d="M45 172L46 173L45 172z"/>
<path style="fill:#a7c7e8; stroke:none;" d="M81 172L82 173L81 172z"/>
<path style="fill:#dce7f3; stroke:none;" d="M97.6667 172.333L98 172.667L98.3333 172.667L98.3333 172.333L97.6667 172.333z"/>
<path style="fill:#b4cbe6; stroke:none;" d="M127 172L128 173L127 172z"/>
<path style="fill:#a7c7e8; stroke:none;" d="M143 172L144 173L143 172z"/>
<path style="fill:#a1bfe0; stroke:none;" d="M179 172L180 173L179 172z"/>
<path style="fill:#8db5de; stroke:none;" d="M46 173L47 174L46 173z"/>
<path style="fill:#a7c7e8; stroke:none;" d="M83 173L84 174L83 173z"/>
<path style="fill:#b4cbe6; stroke:none;" d="M101.667 173.333L102 173.667L102.333 173.667L102 173.333L101.667 173.333z"/>
<path style="fill:#c1d4ea; stroke:none;" d="M121.667 173.333L121.667 173.667L122.333 173.667L122.333 173.333L121.667 173.333z"/>
<path style="fill:#699cd0; stroke:none;" d="M123.667 173.333L123.667 173.667L124.333 173.667L124.333 173.333L123.667 173.333z"/>
<path style="fill:#a7c7e8; stroke:none;" d="M141 173L142 174L141 173z"/>
<path style="fill:#94b6dc; stroke:none;" d="M178 173L179 174L178 173M108 174L108.778 174.722L109.306 174.75L110.111 174.944L111.028 174.972L113 175L113.944 175L117 175L116.222 174.278L115.694 174.25L114.889 174.056L113.972 174.028L112 174L111.056 174L108 174z"/>
<path style="fill:#87aed8; stroke:none;" d="M177 174L176 176L177.083 175L177.417 174.667L177 174z"/>
<path style="fill:#a7c7e8; stroke:none;" d="M56 175L57 176L56 175z"/>
<path style="fill:#96bbe1; stroke:none;" d="M88 175L89 176L88 175z"/>
<path style="fill:#8db5de; stroke:none;" d="M136 175L137 176L136 175z"/>
<path style="fill:#a7c7e8; stroke:none;" d="M168 175L169 176L168 175z"/>
<path style="fill:#96bbe1; stroke:none;" d="M57 176L58 177L57 176z"/>
<path style="fill:#bdd7f0; stroke:none;" d="M133.667 176.333L134 176.667L134.333 176.667L134.333 176.333L133.667 176.333z"/>
<path style="fill:#87aed8; stroke:none;" d="M167 176L168 177L167 176M50 177L51 178L50 177z"/>
<path style="fill:#94b6dc; stroke:none;" d="M51 178L52 179L51 178z"/>
<path style="fill:#78a5d4; stroke:none;" d="M98.6667 178.333L98.6667 178.667L99.3333 178.667L99 178.333L98.6667 178.333z"/>
<path style="fill:#a1bfe0; stroke:none;" d="M125 178L125.722 178.722L126.25 178.75L128 179L127.278 178.278L126.75 178.25L125 178z"/>
<path style="fill:#94b6dc; stroke:none;" d="M173 178L174 179L173 178z"/>
<path style="fill:#a1bfe0; stroke:none;" d="M52 179L53 180L52 179z"/>
<path style="fill:#b7d3ee; stroke:none;" d="M102.667 179.333L102.667 179.667L103.333 179.667L103.333 179.333L102.667 179.333z"/>
<path style="fill:#8db5de; stroke:none;" d="M104 179L104.722 179.722L105.25 179.75L107 180L106.278 179.278L105.75 179.25L104 179z"/>
<path style="fill:#87aed8; stroke:none;" d="M118 179L118.722 179.722L119.25 179.75L121 180L120.278 179.278L119.75 179.25L118 179z"/>
<path style="fill:#afc8e4; stroke:none;" d="M172 179L173 180L172 179z"/>
<path style="fill:#bbd0e8; stroke:none;" d="M53 180L54 181L53 180z"/>
<path style="fill:#96bbe1; stroke:none;" d="M62 180L63 181L62 180z"/>
<path style="fill:#3780c3; stroke:none;" d="M107 180L107 197L107.722 196.222L107.75 195.694L107.944 194.889L107.972 193.972L108 192L108 190L108 187L108 185L108 184L107.972 183.028L107.944 182.111L107.75 181.306L107.722 180.778L107 180M117 180L117 197L117.722 196.222L117.75 195.694L117.944 194.889L117.972 193.972L118 192L118 190L118 187L118 185L118 184L117.972 183.028L117.944 182.111L117.75 181.306L117.722 180.778L117 180z"/>
<path style="fill:#8db5de; stroke:none;" d="M162 180L163 181L162 180z"/>
<path style="fill:#a7c7e8; stroke:none;" d="M65 182L66 183L65 182z"/>
<path style="fill:#a1bfe0; stroke:none;" d="M159 182L160 183L159 182z"/>
<path style="fill:#87aed8; stroke:none;" d="M167 183L168 184L167 183z"/>
<path style="fill:#afc8e4; stroke:none;" d="M58 184L59 185L58 184z"/>
<path style="fill:#96bbe1; stroke:none;" d="M68 184L69 185L68 184z"/>
<path style="fill:#8db5de; stroke:none;" d="M156 184L157 185L156 184z"/>
<path style="fill:#bbd0e8; stroke:none;" d="M166 184L167 185L166 184z"/>
<path style="fill:#87aed8; stroke:none;" d="M61 186L62 187L61 186z"/>
<path style="fill:#96bbe1; stroke:none;" d="M163 186L164 187L163 186z"/>
<path style="fill:#94b6dc; stroke:none;" d="M64 188L65 189L64 188M160 188L161 189L160 188z"/>
<path style="fill:#b4cbe6; stroke:none;" d="M67 190L68 191L67 190z"/>
<path style="fill:#a7c7e8; stroke:none;" d="M80 190L81 191L80 190M144 190L145 191L144 190z"/>
<path style="fill:#c1d4ea; stroke:none;" d="M157 190L158 191L157 190z"/>
<path style="fill:#a1bfe0; stroke:none;" d="M69 191L70 192L69 191z"/>
<path style="fill:#bdd7f0; stroke:none;" d="M82.6667 191.333L83 191.667L83.3333 191.667L83 191.333L82.6667 191.333z"/>
<path style="fill:#a1bfe0; stroke:none;" d="M155 191L156 192L155 191z"/>
<path style="fill:#94b6dc; stroke:none;" d="M71 192L72 193L71 192z"/>
<path style="fill:#8db5de; stroke:none;" d="M139 192L140 193L139 192z"/>
<path style="fill:#94b6dc; stroke:none;" d="M153 192L154 193L153 192z"/>
<path style="fill:#a1bfe0; stroke:none;" d="M73 193L74 194L73 193z"/>
<path style="fill:#b7d3ee; stroke:none;" d="M88.6667 193.333L89 193.667L89.3333 193.667L89.3333 193.333L88.6667 193.333z"/>
<path style="fill:#87aed8; stroke:none;" d="M136 193L137 194L136 193z"/>
<path style="fill:#94b6dc; stroke:none;" d="M151 193L152 194L151 193z"/>
<path style="fill:#a1bfe0; stroke:none;" d="M75 194L76 195L75 194z"/>
<path style="fill:#bdd7f0; stroke:none;" d="M92.6667 194.333L92.6667 194.667L93.3333 194.667L93.3333 194.333L92.6667 194.333z"/>
<path style="fill:#afc8e4; stroke:none;" d="M149 194L150 195L149 194z"/>
<path style="fill:#c1d4ea; stroke:none;" d="M77 195L78 196L77 195z"/>
<path style="fill:#a1bfe0; stroke:none;" d="M96.6667 195.333L96.6667 195.667L97.3333 195.667L97.3333 195.333L96.6667 195.333z"/>
<path style="fill:#b7d3ee; stroke:none;" d="M125.667 195.333L126 195.667L126.333 195.667L126.333 195.333L125.667 195.333z"/>
<path style="fill:#78a5d4; stroke:none;" d="M127.667 195.333L127.667 195.667L128.333 195.667L128 195.333L127.667 195.333z"/>
<path style="fill:#94b6dc; stroke:none;" d="M80 196L81 197L80 196z"/>
<path style="fill:#87aed8; stroke:none;" d="M102 196L102.722 196.722L103.25 196.75L105 197L104.278 196.278L103.75 196.25L102 196z"/>
<path style="fill:#a7c7e8; stroke:none;" d="M105.667 196.333L105.667 196.667L106.333 196.667L106.333 196.333L105.667 196.333M118 196L118.722 196.722L119.25 196.75L121 197L120.278 196.278L119.75 196.25L118 196z"/>
<path style="fill:#94b6dc; stroke:none;" d="M144 196L145 197L144 196z"/>
<path style="fill:#87aed8; stroke:none;" d="M83 197L84 198L83 197M141 197L142 198L141 197M86 198L87 199L86 198z"/>
<path style="fill:#c7d8ec; stroke:none;" d="M138.667 198.333L139 198.667L139.333 198.667L139 198.333L138.667 198.333z"/>
<path style="fill:#afc8e4; stroke:none;" d="M89 199L90 200L89 199z"/>
<path style="fill:#87aed8; stroke:none;" d="M93.6667 200.333L93.6667 200.667L94.3333 200.667L94.3333 200.333L93.6667 200.333z"/>
<path style="fill:#b4cbe6; stroke:none;" d="M130.667 200.333L130.667 200.667L131.333 200.667L131 200.333L130.667 200.333z"/>
<path style="fill:#a7c7e8; stroke:none;" d="M98 201L98.7222 201.722L99.25 201.75L101 202L100.278 201.278L99.75 201.25L98 201z"/>
<path style="fill:#afc8e4; stroke:none;" d="M124.667 201.333L125 201.667L125.333 201.667L125.333 201.333L124.667 201.333z"/>
<path style="fill:#dce7f3; stroke:none;" d="M126.667 201.333L127 201.667L127.333 201.667L127.333 201.333L126.667 201.333z"/>
<path style="fill:#317ec3; stroke:none;" d="M107 202L107 214L107.722 213.222L107.75 212.694L107.944 211.889L107.972 210.972L108 210L108 208L108 206L107.972 205.028L107.944 204.111L107.75 203.306L107.722 202.778L107 202M117 202L117 214L117.722 213.222L117.75 212.694L117.944 211.889L117.972 210.972L118 210L118 208L118 206L117.972 205.028L117.944 204.111L117.75 203.306L117.722 202.778L117 202z"/>
<path style="fill:#87aed8; stroke:none;" d="M108 217L109 218L108 217M116 217L117 218L116 217z"/>
<path style="fill:#b4cbe6; stroke:none;" d="M109 218L110 219L109 218M115 218L116 219L115 218z"/>
<path style="fill:#c7d8ec; stroke:none;" d="M111 219L111.722 219.722L112.25 219.75L114 220L113.278 219.278L112.75 219.25L111 219z"/>
</svg>
